PathFileType	4	(X/Y/Z)	D:\Long Term Storage\D'Arcy Smith\Coord15.trc
DataRate	CameraRate	NumFrames	NumMarkers	Units	OrigDataRate	OrigDataStartFrame	OrigNumFrames
120.00	120.00	      126	4	mm	120.00	1	      4841
Frame#	Time	M1			M2			M3			M4			
		X1	Y1	Z1	X2	Y2	Z2	X3	Y3	Z3	X4	Y4	Z4	

1	0.000	1075.58057	334.71347	164.12370	1648.44995	398.62363	155.40274							
2	0.008	1075.94861	341.15683	155.37224	1650.10364	401.84830	152.86543							
3	0.017	1076.00879	347.83432	147.43536	1652.06458	404.06079	151.48822							
4	0.025	1075.82214	352.72607	142.09305	1654.94519	405.50946	151.07373							
5	0.033	1075.27637	357.01230	137.60117	1655.93103	405.60574	151.54749							
6	0.042	1074.61768	360.36594	134.27820	1657.97095	405.06851	152.90636							
7	0.050	1073.61206	362.67233	132.30951	1659.96375	403.50473	154.96751							
8	0.058	1072.37366	363.83234	131.55542	1663.02173	401.50531	157.88748							
9	0.067	1070.74060	363.86340	131.94705	1664.34692	397.93497	161.19087							
10	0.075	1069.11072	362.93100	133.37978	1666.56921	394.14703	165.23326							
11	0.083	1066.74915	360.34232	136.13872	1668.70215	389.62515	169.87828							
12	0.092	1065.19727	358.08295	139.03140	1670.68213	384.57574	175.16167							
13	0.100	1063.13831	354.40405	143.23466	1672.81921	379.12323	180.90070							
14	0.108	1060.81091	349.88382	148.13060	1674.89087	373.18274	187.24521							
15	0.117	1058.31128	344.57437	154.03868	1676.81519	366.91138	194.20926							
16	0.125	1056.12134	338.92896	160.50578	1678.84741	360.31448	201.73372							
17	0.133	1053.86121	332.70074	167.48685	1680.63916	353.45529	209.95538							
18	0.142	1051.78052	326.10034	175.28300	1682.46802	346.34744	218.71509							
19	0.150	1049.68115	319.16785	183.73531	1684.23035	339.15656	228.19081							
20	0.158	1047.60815	311.88489	192.79735	1685.76099	331.81296	238.33321							
21	0.167	1045.66846	304.39545	202.51282	1687.43152	324.57242	249.19370							
22	0.175	1043.82471	296.70618	213.11142	1688.69531	317.52792	260.68365							
23	0.183	1042.14307	289.02936	224.14177	1689.73889	310.88867	272.66245							
24	0.192	1040.73816	281.43243	235.91666	1690.99365	303.33655	285.80698							
25	0.200	1039.49792	274.07083	248.31505	1692.17932	296.73080	299.36716							
26	0.208	1038.29468	266.94345	261.18359	1693.08948	290.44440	314.47522							
27	0.217	1037.33618	260.35864	274.57751	1693.61682	284.43646	330.05994							
28	0.225	1036.73828	253.96336	288.54187	1694.50061	279.06860	343.64127							
29	0.233	1036.16516	247.93291	303.15771	1694.96936	274.19821	359.23688							
30	0.242	1035.42810	242.23729	318.29160	1694.87769	269.65103	375.13861							
31	0.250	1035.10889	237.36717	334.25989	1695.29846	266.12225	391.62131							
32	0.258	1035.04675	233.04131	349.71829	1694.92395	262.82349	407.98425							
33	0.267	1035.28491	228.91072	367.13010	1694.88794	260.63129	424.67841							
34	0.275	1035.42053	226.08119	382.71454	1694.04504	258.77634	441.22498							
35	0.283	1035.91443	224.13321	398.11203	1693.61523	258.10370	457.94040							
36	0.292	1036.34204	222.74811	413.87607	1692.75659	257.89557	474.15701							
37	0.300	1037.22620	222.16302	428.88086	1691.44641	258.67184	491.14825							
38	0.308	1038.08020	222.14940	444.32068	1690.18518	259.90930	506.26563							
39	0.317	1039.07886	222.85341	458.99472	1688.61060	261.78659	521.16364							
40	0.325	1039.99438	224.00882	473.18781	1687.00732	264.14609	535.28589							
41	0.333	1041.21167	225.63489	486.83774	1685.19055	267.16916	548.51978							
42	0.342	1042.53625	227.84076	499.81970	1683.09839	270.27460	560.61920							
43	0.350	1043.76941	230.72395	511.38208	1681.22437	273.36447	570.53833							
44	0.358	1045.08484	233.35747	522.83893	1679.74707	277.32483	581.71375							
45	0.367	1046.19202	236.65259	534.11255	1676.84106	280.11911	590.94464							
46	0.375	1047.69995	239.79066	544.42273	1674.83899	282.36761	597.46155							
47	0.383	1049.19763	242.90634	553.91895	1672.63135	284.74969	604.10785							
48	0.392	1050.58765	245.89771	562.57520	1670.32056	286.62650	609.53619							
49	0.400	1052.14771	248.87843	570.14307	1667.52795	286.93835	613.56152							
50	0.408	1053.40674	251.56259	577.11981	1665.99866	288.47211	616.87610							
51	0.417	1054.92224	254.11969	583.17938	1663.62158	289.16135	619.12122							
52	0.425	1056.17017	256.17844	588.50604	1661.76892	288.98593	619.84802							
53	0.433	1057.33838	258.10849	592.71930	1659.31689	288.34488	619.82104							
54	0.442	1058.73730	259.62976	595.92749	1658.04614	289.03674	618.58081							
55	0.450	1059.64636	260.74496	598.43054	1656.20923	288.09879	616.48700							
56	0.458	1060.56409	261.64484	600.11261	1654.32202	286.85498	613.70245							
57	0.467	1061.45264	262.09067	600.93909	1652.03186	284.53732	610.04944							
58	0.475	1062.17676	262.14905	600.80896	1649.64307	282.28888	605.69031							
59	0.483	1062.81775	261.84485	599.80487	1648.63794	280.56747	600.71252							
60	0.492	1063.34961	261.04669	597.74365	1646.30249	278.08322	595.13110							
61	0.500	1063.90332	260.11502	594.43329	1644.91370	275.90701	588.96204							
62	0.508	1063.98169	258.74112	590.48230	1643.53955	273.93002	582.42310							
63	0.517	1064.37646	256.72107	589.53217	1643.23218	271.82462	575.11060							
64	0.525	1064.55432	254.93394	584.73260	1641.48438	269.36880	567.50610							
65	0.533	1064.57458	253.18269	578.73907	1640.69141	267.68970	559.40204							
66	0.542	1064.47668	251.12340	573.40320	1640.17151	265.38809	550.67529							
67	0.550	1064.23511	249.19370	566.26318	1639.76587	263.74081	541.65247							
68	0.558	1064.05786	247.80789	558.41620	1639.37280	262.17285	532.30402							
69	0.567	1063.69824	245.70035	550.42230	1639.27710	260.82715	522.52167							
70	0.575	1063.38269	243.94273	541.60236	1639.25977	259.76208	512.19989							
71	0.583	1062.95850	242.44969	532.48419	1639.54065	258.93353	501.59311							
72	0.592	1062.43054	240.90779	522.74420	1639.71106	258.48526	490.64243							
73	0.600	1062.05945	239.41330	511.82016	1640.42236	258.39255	479.25543							
74	0.608	1061.93799	237.98196	502.29114	1641.06067	258.67953	467.64941							
75	0.617	1061.47705	237.50012	491.03955	1641.97546	259.40250	455.71747							
76	0.625	1061.02173	237.14006	479.48550	1643.03845	260.42157	443.44290							
77	0.633	1060.63660	237.28041	467.26187	1644.25696	262.06442	430.94040							
78	0.642	1060.73657	237.62413	454.43530	1645.54797	264.10797	418.15439							
79	0.650	1059.78430	238.84520	442.19894	1646.97766	266.51230	405.20807							
80	0.658	1059.59033	240.31215	428.92102	1648.77869	269.53519	392.00528							
81	0.667	1059.23059	242.13640	415.10037	1650.46863	272.96994	378.65286							
82	0.675	1059.17578	244.62088	401.55887	1652.44470	276.94534	365.22028							
83	0.683	1058.85999	247.24527	386.36795	1654.49658	281.34473	351.71286							
84	0.692	1058.74976	250.29610	373.68597	1656.70593	286.21298	338.26056							
85	0.700	1058.73145	254.43498	359.08841	1658.90991	291.47592	324.90833							
86	0.708	1058.75220	258.44705	344.85489	1661.11621	297.16190	311.71869							
87	0.717	1058.60632	262.73007	329.59793	1663.46887	303.26859	298.72397							
88	0.725	1058.64661	267.49829	314.40750	1665.94189	309.43216	286.08615							
89	0.733	1058.64526	272.78607	300.57449	1668.31653	315.99539	273.80005							
90	0.742	1058.59961	278.23096	286.65906	1670.81262	322.92404	261.79037							
91	0.750	1058.67639	283.84628	273.24350	1672.98401	329.92426	250.23819							
92	0.758	1058.48730	289.54114	260.15018	1675.34412	337.17490	239.06236							
93	0.767	1058.55444	296.63568	246.40814	1677.63696	344.53323	228.48962							
94	0.775	1058.34363	302.60828	234.37697	1679.91187	351.86557	218.33217							
95	0.783	1058.24744	308.88315	222.78047	1682.00610	358.99408	208.78294							
96	0.792	1057.82336	314.91022	211.91617	1684.31555	366.08243	199.82631							
97	0.800	1057.88892	321.19452	201.51155	1686.41296	372.94629	191.49306							
98	0.808	1057.38623	327.07819	192.11151	1688.55701	379.52536	183.98058							
99	0.817	1057.19824	332.90274	182.98004	1690.41443	385.77667	177.25642							
100	0.825	1056.58545	338.32977	175.03627	1692.27136	391.60034	171.27487							
101	0.833	1056.04480	343.37970	167.81516	1693.91626	396.76144	166.22229							
102	0.842	1055.40491	347.76752	161.85997	1695.65894	401.42560	162.03072							
103	0.850	1054.55090	351.52502	156.94865	1697.29993	405.45490	158.76099							
104	0.858	1053.63098	354.45294	152.77969	1698.86047	408.57654	156.36270							
105	0.867	1052.78601	356.97061	149.77550	1700.47241	411.08209	154.90228							
106	0.875	1051.34937	358.13367	147.81252	1701.86182	412.89655	154.27594							
107	0.883	1050.07007	358.73532	146.85550	1703.59106	413.37442	154.38882							
108	0.892	1048.71057	358.46933	147.07800	1705.24146	413.32693	155.36250							
109	0.900	1047.33276	357.68845	147.80223	1706.67688	412.29669	156.97539							
110	0.908	1045.71045	355.62128	149.73413	1708.33411	410.62210	159.22444							
111	0.917	1044.25806	353.17264	152.54016	1709.96033	408.14896	162.03340							
112	0.925	1042.57703	349.99191	156.20874	1711.53516	405.08826	165.54173							
113	0.933	1040.95093	345.94812	160.54893	1713.02393	401.39383	169.50156							
114	0.942	1039.42041	341.45795	165.73914	1714.53259	397.14246	174.02884							
115	0.950	1037.91467	336.38397	171.63274	1715.97046	392.39117	179.02356							
116	0.958	1036.71326	330.92880	178.08031	1717.40381	387.29092	184.58804							
117	0.967	1035.06873	325.08990	184.98746	1718.64319	381.78671	190.58057							
118	0.975	1033.56299	318.72083	192.81163	1719.62390	375.88770	197.26021							
119	0.983	1032.57410	312.41721	201.05945	1720.69958	369.74774	204.45358							
120	0.992	1031.36865	305.69278	209.99905	1721.45251	363.28622	212.08662							
121	1.000	1030.54102	298.86603	219.43782	1722.35413	356.84348	220.36682							
122	1.008	1029.67188	291.55588	229.80013	1722.71753	350.58282	229.13475							
123	1.017	1029.00818	284.39780	240.42715	1723.13733	343.81201	238.56589							
124	1.025	1028.51855	278.00827	251.17163	1723.33191	336.86551	249.29515							
125	1.033	1028.14392	271.28036	262.87604	1723.72571	330.16083	259.16467							
126	1.042	1027.89392	264.73624	275.06323	1723.81006	323.26184	270.95346							
